<svg xmlns="http://www.w3.org/2000/svg" style="display: none;"><symbol id="cursor" viewBox="0 0 512.001 512.001"><title>cursor</title><path d="M429.742,319.31L82.49,0l-0.231,471.744l105.375-100.826l61.89,141.083l96.559-42.358l-61.89-141.083L429.742,319.31z M306.563,454.222l-41.62,18.259l-67.066-152.879l-85.589,81.894l0.164-333.193l245.264,225.529l-118.219,7.512L306.563,454.222z"/></symbol><symbol id="eraser" viewBox="0 0 512.00102 512"><title>eraser</title><path d="m50.292969 303.71875-28.558594 28.5625c-15.632813 15.628906-15.632813 40.949219 0 56.566406l101.417969 101.421875c15.621094 15.617188 40.9375 15.617188 56.570312 0l28.558594-28.5625zm0 0" fill="#eafaff"/><path d="m490.269531 123.152344c15.628907 15.621094 15.628907 40.941406 0 56.570312l-157.269531 157.277344-.011719-.011719-157.976562-157.988281 157.269531-157.265625c15.628906-15.628906 40.949219-15.628906 56.566406 0zm0 0" fill="#ff523d"/><path d="m333 337-124.71875 124.707031c-15.621094 15.621094-40.941406 15.621094-56.558594 0l-101.429687-101.425781c-15.621094-15.621094-15.621094-40.941406 0-56.5625l124.71875-124.71875 157.976562 157.988281zm0 0" fill="#96c8ef"/><path d="m238.640625 157.792969c-3.898437 3.910156-3.898437 10.238281 0 14.140625 3.910156 3.90625 10.238281 3.90625 14.148437 0 3.902344-3.902344 3.902344-10.230469 0-14.140625-3.910156-3.902344-10.238281-3.902344-14.148437 0zm0 0"/><path d="m497.339844 116.082031-101.417969-101.417969c-19.535156-19.550781-51.160156-19.550781-70.714844 0-15.351562 15.351563-297.589843 297.589844-310.542969 310.542969-19.542968 19.542969-19.558593 51.167969 0 70.714844l101.417969 101.417969c9.253907 9.253906 21.648438 14.65625 36.320313 14.65625h195.597656c5.519531 0 10-4.476563 10-10 0-5.519532-4.480469-10-10-10h-155.867188c.757813-.753906 304.789063-304.785156 305.207032-305.203125 19.539062-19.542969 19.554687-51.167969 0-70.710938zm-296.128906 338.554688c-11.695313 11.695312-30.722657 11.695312-42.417969 0l-101.429688-101.429688c-5.664062-5.664062-8.785156-13.195312-8.785156-21.207031 0-8.007812 3.121094-15.542969 8.785156-21.207031l117.648438-117.648438 143.847656 143.855469zm-172.410157-72.863281c-11.726562-11.71875-11.730469-30.6875.003907-42.421876l.273437-.273437c1.503906 10.667969 6.390625 20.519531 14.144531 28.273437l101.429688 101.425782c7.949218 7.953125 17.9375 12.65625 28.296875 14.121094l-.296875.296874c-11.699219 11.695313-30.734375 11.699219-42.429688 0zm454.394531-209.121094-150.195312 150.203125-143.847656-143.851563 150.199218-150.199218c11.726563-11.726563 30.695313-11.738282 42.425782 0l101.421875 101.421874c11.730469 11.722657 11.734375 30.6875-.003907 42.425782zm0 0"/><path d="m339.359375 57.082031-72.429687 72.429688c-3.90625 3.90625-3.90625 10.238281 0 14.140625 3.90625 3.90625 10.234374 3.90625 14.140624 0l72.429688-72.429688c3.90625-3.90625 3.90625-10.238281 0-14.140625-3.90625-3.90625-10.234375-3.90625-14.140625 0zm0 0"/><path d="m388 491.996094c-5.523438 0-10 4.480468-10 10 0 5.523437 4.476562 10 10 10h20c5.519531 0 10-4.476563 10-10 0-5.519532-4.480469-10-10-10zm0 0"/><path d="m448 491.996094c-5.523438 0-10 4.480468-10 10 0 5.523437 4.476562 10 10 10h19.996094c5.523437 0 10-4.476563 10-10 0-5.519532-4.476563-10-10-10zm0 0"/></symbol><symbol id="marker" viewBox="0 0 48 48"><title>marker</title><path d="m7.647 37.52-2.38 2.38c-1.06 1.06-1.83 2.38-2.23 3.83-.18.66.32 1.27.96 1.27.09 0 .18-.01.27-.04 1.45-.4 2.77-1.17 3.83-2.23l2.38-2.38z" fill="#0d3b8d"/><path d="m5.097 43.73c-.453.453-.961.84-1.499 1.181.123.054.256.089.399.089.09 0 .18-.01.27-.04 1.45-.4 2.77-1.17 3.83-2.23l2.38-2.38-1-1z" fill="#00286f"/><path d="m41.277 11.682 3.13-3.14c.79-.79.79-2.05 0-2.83l-2.12-2.12c-.78-.79-2.04-.79-2.83 0l-3.13 3.13z" fill="#0d3b8d"/><path d="m44.407 5.712-.424-.423c-.038.455-.224.901-.576 1.253l-3.631 3.636 1.501 1.503 3.13-3.14c.79-.79.79-2.05 0-2.83z" fill="#00286f"/><path d="m42.972 9.27-4.243-4.242c-.781-.781-2.047-.781-2.828 0l-26.65 26.648c-.797.797-1.327 1.821-1.518 2.932-.191 1.111-.721 2.135-1.518 2.932l-.568.568c-.391.391-.391 1.024 0 1.414l2.828 2.828c.391.39 1.024.39 1.414 0l.568-.568c.797-.797 1.821-1.327 2.932-1.518 1.111-.191 2.135-.721 2.932-1.518l26.65-26.648c.781-.781.781-2.047 0-2.828z" fill="#eff3f9"/><path d="m42.972 9.27-.675-.675c-.096.204-.219.398-.388.567l-27.79 27.788c-.679.679-1.426 1.287-2.228 1.814-.803.527-1.549 1.135-2.228 1.814l-1.065 1.065c-.145.145-.311.254-.483.345l.362.362c.391.391 1.024.391 1.414 0l.568-.568c.797-.797 1.821-1.327 2.932-1.518s2.135-.721 2.932-1.518l26.65-26.648c.781-.781.781-2.047 0-2.828z" fill="#cfe0f3"/><path d="m8.231 33.104c-.235.472-.407.977-.497 1.503-.191 1.111-.721 2.135-1.518 2.932l-.568.568c-.391.391-.391 1.024 0 1.414l2.828 2.828c.391.391 1.024.391 1.414 0l.568-.568c.797-.797 1.821-1.327 2.932-1.518.526-.09 1.03-.262 1.503-.497z" fill="#cfe0f3"/><path d="m11.891 38.764c-.803.527-1.549 1.135-2.228 1.814l-1.065 1.065c-.145.145-.311.254-.483.345l.362.362c.391.391 1.024.391 1.414 0l.568-.568c.797-.797 1.821-1.327 2.932-1.518.526-.09 1.03-.262 1.503-.497l-1.849-1.848c-.37.301-.755.583-1.154.846z" fill="#aecee8"/></symbol><symbol id="highlighter" viewBox="0 0 512 512"><title>highlighter</title><path style="fill:#274B6D;" d="M124.643,318.631c-3.093,20.141-11.722,53.561-35.807,80.975l25.223,25.223 c3.191,3.191,3.191,8.364,0,11.554c-0.003,0.003,11.551,11.557,11.551,11.557c28.375-28.375,65.315-38.08,86.942-41.4 L124.643,318.631z"/><path style="fill:#185F8D;" d="M108.282,438.775c-2.09,0-4.182-0.797-5.778-2.393l-25.035-25.035l-11.554,11.555l1.926,1.926 c0.011,0.011,38.498,38.499,38.498,38.499c0.021,0.021,1.941,1.941,1.941,1.941l17.33-17.33l-11.554-11.554 C112.46,437.979,110.37,438.775,108.282,438.775z"/><polygon style="fill:#FFCC75;" points="62.071,442.167 27.893,476.356 81.782,476.351 89.017,469.115 "/><rect x="105.639" y="327.852" transform="matrix(-0.7071 -0.7071 0.7071 -0.7071 82.6265 717.1553)" style="fill:#6DA8D6;" width="168.404" height="27.226"/><path style="fill:#FFCC75;" d="M296.587,185.391L182.515,291.78l57.008,57.008L474.976,96.333l-40.006-40.006L320.488,163.1 c-1.574,1.468-3.574,2.195-5.57,2.195c-2.187,0-4.367-0.873-5.976-2.597l-11.951,11.146 C300.067,177.144,299.887,182.313,296.587,185.391z"/><g> <path style="fill:#FF9D49;" d="M170.954,280.219L285.443,173.44c3.3-3.079,8.469-2.898,11.547,0.403 c0.001,0.001,11.951-11.145,11.951-11.145c-3.079-3.3-2.899-8.471,0.401-11.548L423.408,44.765l-1.74-1.74 c-4.762-4.763-11.215-7.385-18.172-7.385c-6.6,0-12.811,2.402-17.488,6.764L151.684,260.949L170.954,280.219z"/> <path style="fill:#FF9D49;" d="M488.276,109.634l-1.74-1.74L251.083,360.349l19.269,19.269l218.545-234.326 C498.221,135.296,497.942,119.3,488.276,109.634z"/> </g><path style="fill:#082947;" d="M499.831,98.079l-66.607-66.607c-7.849-7.849-18.406-12.171-29.727-12.171 c-10.751,0-20.919,3.962-28.632,11.155L134.352,254.77c-0.069,0.065-0.137,0.131-0.205,0.198l-30.806,30.806 c-1.532,1.532-2.392,3.61-2.392,5.777c0,2.167,0.861,4.245,2.392,5.777l6.52,6.52c-0.88,12.592-6.237,58.234-38.17,90.167 l-23.109,23.109c-3.191,3.191-3.191,8.364,0,11.554l1.934,1.934L2.392,478.754c-2.337,2.337-3.034,5.851-1.769,8.903 c1.265,3.052,4.244,5.043,7.549,5.043l76.995-0.01c2.166,0,4.244-0.862,5.776-2.393l9.629-9.629l1.931,1.931 c1.596,1.596,3.686,2.393,5.778,2.393c2.09,0,4.182-0.797,5.778-2.393l23.11-23.109c31.817-31.817,77.575-37.256,90.174-38.162 l6.633,6.633c1.533,1.533,3.61,2.393,5.778,2.393s4.244-0.861,5.778-2.393l30.805-30.806c0.068-0.068,0.133-0.135,0.197-0.205 l224.317-240.512C516.105,140.077,515.65,113.898,499.831,98.079z M125.612,447.937l-17.332,17.332l-1.921-1.921 c-0.021-0.021-38.508-38.508-38.508-38.508c-0.011-0.011-1.937-1.937-1.937-1.937l11.554-11.555l25.035,25.035 c1.596,1.595,3.688,2.393,5.778,2.393c2.089,0,4.179-0.797,5.775-2.39c3.194-3.194,3.194-8.367,0.003-11.557l-25.223-25.223 c24.085-27.414,32.715-60.833,35.807-80.975l87.909,87.909C190.924,409.859,153.984,419.565,125.612,447.937z M27.893,476.356 l34.178-34.189l26.947,26.947l-7.236,7.236L27.893,476.356z M403.498,35.641c6.957,0,13.41,2.623,18.172,7.385l1.74,1.74 L309.344,151.15c-3.3,3.077-3.479,8.248-0.402,11.547c1.609,1.726,3.79,2.598,5.976,2.598c1.996,0,3.996-0.727,5.57-2.195 L434.971,56.327l40.006,40.006L239.523,348.788l-57.008-57.008l114.072-106.39c3.3-3.077,3.479-8.247,0.403-11.546 c-3.079-3.302-8.248-3.483-11.547-0.404L170.954,280.219l-19.27-19.27L386.01,42.406C390.687,38.043,396.897,35.641,403.498,35.641z M120.673,291.552l19.252-19.252l119.079,119.079l-19.251,19.251L120.673,291.552z M270.353,379.618l-19.269-19.269l235.452-252.455 l1.74,1.74c9.666,9.666,9.945,25.662,0.622,35.659L270.353,379.618z"/></symbol><symbol id="pen" viewBox="0 0 468 468"><title>pen</title><g><g><g><path d="m178.377 363.816-65.536-37.649c-4.84-2.78-6.497-8.965-3.696-13.792l100.764-173.657 83.011 47.687-100.806 173.73c-2.785 4.8-8.926 6.445-13.737 3.681z" fill="#fff"/></g><g><path d="m236.756 154.142-26.848-15.423-100.764 173.656c-2.801 4.827-1.144 11.012 3.696 13.792l18.074 10.383z" fill="#e6e7e8"/></g></g><g><path d="m282.746 220.894-97.769-56.165 72.343-124.677c15.579-26.848 49.935-36.053 76.853-20.589 27.078 15.555 36.35 50.155 20.679 77.163z" fill="#fff"/></g><g><path d="m215.554 76.013h158.234v23.998h-158.234z" fill="#0795fe" transform="matrix(.502 -.865 .865 .502 70.608 298.661)"/></g><g><g><path d="m139.344 411.962 2.243-5.029-47.952-27.547-3.255 4.447c-15.179 20.733-18.538 47.79-8.888 71.575 25.527-3.577 47.395-20 57.852-43.446z" fill="#fff"/></g><g><path d="m113.771 390.954-20.136-11.568-3.256 4.447c-15.179 20.733-18.538 47.789-8.888 71.575 8.965-1.256 17.475-4.102 25.201-8.275-5.183-18.91-2.639-39.12 7.079-56.179z" fill="#e6e7e8"/></g></g><path d="m142.114 407.236-48.934-28.111c-4.84-2.78-6.497-8.965-3.696-13.792l22.884-39.438 66.409 38.15-22.926 39.511c-2.785 4.799-8.926 6.444-13.737 3.68z" fill="#fff"/></g><g><path d="m377.371 443.998h26.629v24.002h-26.629z" fill="#0795fe"/></g><path d="m148.552 420.516c7.098-.472 13.851-4.347 17.675-10.935l18.865-32.512c6.997-.553 13.625-4.406 17.397-10.909l77.518-133.595c4.798 1.127 10.637-1.378 13.115-5.646l72.106-124.269c18.763-32.338 7.256-75.018-25.08-93.594-32.556-18.703-74.365-7.498-93.205 24.971l-72.343 124.677c-2.551 5.318-2.019 10.052 1.598 14.202l-77.43 133.444c-3.44 5.928-3.779 14.309-.846 20.533l-18.815 32.427c-3.483 6.002-3.785 14.522-.734 20.788-15.74 23.725-18.777 53.26-7.999 79.824 1.835 4.522 7.55 7.468 11.117 8.078h189.247c3.672 0 7.142-1.682 9.417-4.565l6.6-8.363 7.173 8.61c2.28 2.736 5.656 4.318 9.217 4.318h52.257v-24.002h-46.638l-13.044-15.658c-4.808-5.771-13.984-5.645-18.634.247l-12.162 15.411h-133.649c6.949-6.693 12.812-14.594 17.277-23.482zm119.146-374.441c12.228-21.075 39.367-28.347 60.5-16.206 20.892 12 28.403 39.835 16.277 60.731l-66.11 113.937-76.961-44.211zm-70.96 139.249 62.202 35.734-76.244 131.4-62.202-35.733zm-79.989 156.928 45.601 26.196-15.917 27.43-45.601-26.196zm-19.593 52.997 28.865 16.583c-7.874 14.303-20.89 24.805-36.427 29.537-3.63-15.742-.975-32.196 7.562-46.12z" fill="#3e4d6c"/></symbol><symbol id="pen-1" viewBox="0 0 468 468"><title>pen-1</title><g><g><g><path d="m267.236 45.1-82.359 141.873 116.116 66.364 81.97-141.203c18.461-31.802 7.736-72.527-24.002-91.138-31.978-18.751-73.124-7.939-91.725 24.104z" fill="#fff"/></g><g><path d="m267.236 45.1-82.358 141.873 26.92 15.385 82.249-141.683z" fill="#0795fe"/></g></g><path d="m261.577 321.236-116.116-66.364 39.417-67.899 116.116 66.363z" fill="#fff"/><g><g><path d="m129.443 364.201 16.018-110.329 116.116 66.363-88.138 69.094z" fill="#fff"/></g><g><path d="m173.434 269.859-27.973-15.987-16.018 110.329 27.974 15.977z" fill="#e6e7e8"/></g></g><g><g><path d="m135.639 455.994h-59.675l53.335-90.875 44.283 25.292z" fill="#fff"/></g><g><path d="m129.299 365.119-53.335 90.875h30.003l46.054-78.469z" fill="#e6e7e8"/></g></g></g><g><g><path d="m377.363 443.739h26.637v24.011h-26.637z" fill="#0795fe"/></g><path d="m268.776 330.845c1.268-.936 2.389-2.216 3.18-3.58l121.386-209.102c21.712-37.403 9.012-85.638-28.312-107.524-37.287-21.863-86.51-8.882-108.172 28.432l-121.775 209.772c-.756 1.308-1.281 2.809-1.498 4.304l-15.617 107.567-52.353 89.203c-4.616 7.865 1.231 18.083 10.349 18.083l182.99-.25c3.571 0 6.956-1.591 9.235-4.339l6.925-8.347 6.031 7.943c2.269 2.989 5.805 4.744 9.557 4.744h64.687v-24.011h-58.732l-11.571-15.24c-4.573-6.023-13.97-6.218-18.793-.404l-12.975 15.643h-96.722l26.419-45.664zm8.838-279.716c15.024-25.88 49.395-34.955 75.278-19.776 25.952 15.217 34.787 48.751 19.694 74.752l-75.986 130.893-95.274-54.452zm-88.343 152.182 95.274 54.452-27.362 47.135-95.274-54.452zm-60.553 240.678h-31.791l36.718-62.563 22.992 13.132.511.292zm13.777-85.158 12.311-84.792 85.318 48.762-67.738 53.101z" fill="#3e4d6c"/></g></symbol><symbol id="pen-2" viewBox="0 0 468 468"><title>pen-2</title><g><g><path d="m342.28 57.25-46.025-28.625 13.35-21.608c3.885-6.708 12.469-9.007 19.188-5.139l22.454 12.922c6.742 3.88 9.051 12.495 5.154 19.225z" fill="#0795fe"/></g><g><g><path d="m255.152 60.086-166.423 283.157 79.965 45.407 165.89-282.25c5.077-8.637 2.156-19.754-6.511-24.784l-48.252-28.005c-8.605-4.994-19.629-2.1-24.669 6.475z" fill="#fff"/></g><g><path d="m289.447 59.198-9.626-5.587c-8.605-4.994-19.629-2.1-24.669 6.475l-166.423 283.157 26.588 15.097s173.668-298.544 174.13-299.142z" fill="#e6e7e8"/></g></g><g><g><path d="m168.68 388.641-79.966-45.407-12.709 112.464z" fill="#fff"/></g><g><path d="m88.714 343.234-12.709 112.464 30.493-22.064 8.528-75.46z" fill="#e6e7e8"/></g></g></g><g><g><path d="m376.383 444h27.622v24h-27.622z" fill="#0795fe"/></g></g><path d="m239.527 428.556c-4.608-5.866-13.689-6.061-18.544-.402l-13.586 15.834-94.45-.209 62.629-45.317c-.033.023 2.695-2.425 3.464-3.732l139.223-236.879 8 4.58c4.006 2.827 4.985 6.47 2.938 10.926l-55.425 95.696 20.768 12.028 55.426-95.697c8.692-15.011 3.307-35.143-11.783-43.782l-7.762-4.444 14.505-24.679c8.268-14.069 3.312-33.033-10.833-41.243l-48.253-28.005c-14.27-8.281-32.68-3.448-41.038 10.773l-166.422 283.158c-.829 1.426-1.412 3.108-1.594 4.724l-12.709 112.464c-.866 7.671 4.962 12.551 11.898 13.348l136.896.302h.026c3.5 0 6.827-1.529 9.107-4.186l7.672-8.941 6.707 8.539c2.275 2.896 5.755 4.588 9.438 4.588h107.771v-24h-101.938zm25.97-362.389c1.69-2.875 5.412-3.851 8.3-2.177l48.253 28.004c3.038 2.169 3.767 4.944 2.188 8.325l-14.643 24.915-58.972-33.76zm-27.036 45.999 58.972 33.76-133.093 226.451-59.093-33.555zm-139.864 250.479 47.927 27.214-55.544 40.191z" fill="#3e4d6c"/></symbol><symbol id="eraser-1" viewBox="0 0 424 424"><title>eraser-1</title><g><g><g><path d="m75.202 106.691h314.016v150.199h-314.016z" fill="#fff" transform="matrix(.707 -.707 .707 .707 -60.532 217.443)"/></g><g><path d="m33.599 123.924h314.016v32.527h-314.016z" fill="#e6e7e8" transform="matrix(.707 -.707 .707 .707 -43.3 175.839)"/></g></g><g><path d="m65.559 240.755h65.174v150.199h-65.174z" fill="#fff" transform="matrix(.707 -.707 .707 .707 -194.597 161.912)"/></g><g><path d="m23.956 257.988h65.174v32.527h-65.174z" fill="#e6e7e8" transform="matrix(.707 -.707 .707 .707 -177.364 120.308)"/></g><path d="m53.759 212.266h379.19v53.506h-379.19z" fill="#fff" transform="matrix(.707 -.707 .707 .707 -97.735 242.085)"/><path d="m99.745 323.287h65.174v53.506h-65.174z" fill="#fff" transform="matrix(.707 -.707 .707 .707 -208.757 196.098)"/><g><g><path d="m157.92 64.416h217.106v166.223h-217.106z" fill="#fff" transform="matrix(.707 -.707 .707 .707 -26.269 231.635)"/></g><g><path d="m305.106 32.644-20.644-20.644-153.516 153.517 22.968 22.968z" fill="#0795fe"/></g></g><g><path d="m195.339 154.753h217.106v60.387h-217.106z" fill="#fff" transform="matrix(.707 -.707 .707 .707 -41.769 269.054)"/></g></g><g><path d="m387.229 400h26.771v24h-26.771z" fill="#0795fe"/></g><path d="m243.308 293.87c4.423 2.116 10.199 1.133 13.661-2.33l153.517-153.517c4.625-4.626 4.625-12.344 0-16.971l-117.538-117.537c-4.688-4.687-12.285-4.687-16.971 0l-153.517 153.517c-4.625 4.626-4.625 12.344 0 16.971l65.552 65.552-51.555 51.555-51.402-51.401 32.072-32.072-16.971-16.971-86.643 86.643c-4.687 4.687-4.687 12.284 0 16.971l105.724 105.72h-109.237v24h350.192v-24h-223.014zm141.722-164.333-136.546 136.547-25.729-25.729 136.545-136.547zm-237.114 35.98 136.546-136.546 57.867 57.867-136.546 136.546zm-108.945 120.277 29.114-29.115 51.402 51.401-29.115 29.115zm89.236 89.236-20.864-20.864 29.114-29.115 20.864 20.864zm25.221-66.95 51.555-51.555 20.864 20.864-51.555 51.555z" fill="#3e4d6c"/></symbol><symbol id="pen-3" viewBox="0 0 468 468"><title>pen-3</title><g><g><g><path d="m267.236 45.1-82.359 141.873 116.116 66.364 81.97-141.203c18.461-31.802 7.736-72.527-24.002-91.138-31.978-18.751-73.124-7.939-91.725 24.104z" fill="#a2d962"/></g><g><path d="m288.239 68.11c18.601-32.043 59.747-42.855 91.725-24.104 1.279.75 2.512 1.549 3.722 2.369-5.611-10.197-13.954-19.064-24.724-25.379-31.978-18.751-73.124-7.939-91.725 24.104l-82.359 141.873 25.8 14.746z" fill="#77bc4d"/></g><g><path d="m198.96 126.534h28.072v24.004h-28.072z" fill="#4d4d4d" transform="matrix(.502 -.865 .865 .502 -13.784 253.125)"/></g></g><g><g><path d="m129.443 365.201 16.018-110.329 116.116 66.364-88.138 69.093z" fill="#fff"/></g><g><path d="m170.307 269.072-24.846-14.2-16.018 110.329 24.847 14.192z" fill="#e0e0e0"/></g></g></g><g><g><path d="m377.363 443.739h26.637v24.011h-26.637z" fill="#77bc4d"/></g></g><path d="m268.776 330.845c1.268-.936 2.398-2.216 3.18-3.58l121.386-209.102c21.712-37.403 9.012-85.638-28.312-107.524-37.287-21.863-86.51-8.882-108.172 28.432l-33.255 57.285 20.756 12.058 33.255-57.285c15.025-25.881 49.394-34.954 75.278-19.776 25.952 15.217 34.787 48.751 19.694 74.752l-75.986 130.893-105.769-60.45c-5.725-3.271-13.02-1.311-16.332 4.395l-39.416 67.899c-.756 1.308-1.281 2.809-1.498 4.304l-15.617 107.567-52.353 89.203c-4.616 7.866 1.231 18.084 10.349 18.084l182.99-.25c3.571 0 6.956-1.591 9.235-4.339l6.925-8.347 6.031 7.943c2.269 2.989 5.805 4.744 9.557 4.744h64.687v-24.011h-58.732l-11.571-15.24c-4.573-6.023-13.97-6.218-18.793-.404l-12.975 15.643h-96.722l26.419-45.664zm-126.281 27.986 12.311-84.792 85.318 48.762-67.738 53.101z" fill="#4d4d4d"/></symbol><symbol id="pen-4" viewBox="0 0 468 468"><title>pen-4</title><g><g><g><path d="m255.152 60.075-166.423 283.164 79.965 45.408 165.89-282.257c5.077-8.638 2.156-19.755-6.511-24.785l-48.252-28.005c-8.605-4.994-19.629-2.1-24.669 6.475z" fill="#fff"/></g><g><g><path d="m288.779 58.799-8.958-5.199c-8.605-4.994-19.629-2.101-24.669 6.475l-166.423 283.164 24.651 13.998z" fill="#e0e0e0"/></g></g></g><g><g><path d="m341.247 26.788-22.454-12.923c-6.72-3.868-15.303-1.569-19.188 5.139l-19.978 34.496c.064.036.13.063.194.1l46.542 27.013 20.038-34.599c3.897-6.73 1.588-15.345-5.154-19.226z" fill="#56c7f4"/></g><g><path d="m318.794 13.865c-6.72-3.868-15.303-1.569-19.188 5.139l-19.979 34.496c.064.036.13.063.194.1l21.665 12.574c.202-.364.326-.579.335-.574l.067.039 25.846-46.628z" fill="#45bfe5"/></g></g><g><path d="m278.137 252.612h24.154v24h-24.154z" fill="#45bfe5" transform="matrix(.501 -.865 .865 .501 -84.218 383.119)"/></g></g><g><g><path d="m376.383 443.999h27.622v24.001h-27.622z" fill="#4d4d4d"/></g><path d="m359.405 32.227c-1.806-6.735-6.128-12.361-12.172-15.839l-22.454-12.924c-12.424-7.148-28.376-2.877-35.558 9.526l-15.264 26.356c-11.39-1.198-22.996 4.175-29.152 14.648l-166.421 283.165c-.829 1.426-1.412 3.109-1.594 4.724l-12.709 112.467c-.866 7.671 4.962 12.551 11.898 13.348l136.896.302h.026c3.5 0 6.827-1.529 9.107-4.186l7.672-8.941 6.707 8.539c2.275 2.897 5.755 4.588 9.438 4.588h107.771v-24.001h-101.938l-12.131-15.445c-4.608-5.867-13.689-6.061-18.544-.402l-13.586 15.834-94.45-.209 62.629-45.318c-.033.023 2.695-2.425 3.464-3.732l139.223-236.886 8 4.58c4.006 2.827 4.985 6.47 2.938 10.927l-32.435 56.002 20.768 12.029 32.436-56.003c8.692-15.012 3.307-35.144-11.783-43.783l-7.762-4.444 14.505-24.679c6.333-10.776 5.085-25.24-3.028-34.746l14.883-25.697c3.494-6.033 4.425-13.065 2.62-19.8zm-195.065 340.147-59.093-33.556 133.215-226.662 58.972 33.761zm159.898-272.064-14.643 24.916-58.972-33.761 14.875-25.309c1.69-2.876 5.412-3.851 8.3-2.177l48.253 28.005c3.037 2.169 3.766 4.944 2.187 8.326zm11.779-60.311-14.018 24.205-25.194-14.622-.779-.452 13.964-24.111c.568-.982 1.834-1.32 2.818-.753l22.453 12.923c1.03.728 1.282 1.665.756 2.81z" fill="#4d4d4d"/></g></symbol><symbol id="paint" viewBox="0 0 512.002 512.002"><title>paint</title><g><path d="m167.256 73.413h-32.645c-4.433 0-8.028 3.594-8.028 8.028v58.549l2.626 4.401h43.001l3.073-4.401v-58.55c0-4.433-3.594-8.027-8.027-8.027z" fill="#f9f6f9"/><path d="m150.933 81.44c0-4.433 3.594-8.028 8.028-8.028h-24.35c-4.433 0-8.028 3.594-8.028 8.028v58.549l2.626 4.401h24.35l-2.626-4.401z" fill="#cbe2ff"/><path d="m433.894 61.412c-2.899-.994-4.748-3.864-4.541-6.921.066-.966.099-1.941.099-2.924 0-23.998-19.455-43.453-43.453-43.453-18.067 0-33.549 11.03-40.101 26.722-1.373 3.289-5.043 5.087-8.423 3.955-2.694-.903-5.574-1.398-8.569-1.411-15.042-.064-27.502 12.342-27.502 27.383 0 .084.001.168.001.252.029 3.18-2.018 6.001-5.097 6.798l-80.358 20.811c-5.919 1.533-10.518 6.467-11.153 12.549-.752 7.197 3.877 13.72 10.731 15.496l80.78 20.921c3.079.797 5.126 3.618 5.097 6.798-.001.084-.001.168-.001.252-.001 15.042 12.46 27.447 27.502 27.383 2.995-.013 5.876-.508 8.569-1.411 3.38-1.133 7.05.665 8.423 3.955 6.551 15.691 22.033 26.721 40.101 26.721 23.998 0 43.453-19.454 43.453-43.453 0-.983-.033-1.958-.099-2.925-.207-3.058 1.642-5.928 4.541-6.921 18.815-6.451 32.342-24.286 32.342-45.288 0-21.003-13.527-38.838-32.342-45.289z" fill="#80b4fb"/><path d="m454.363 75.162c-3.741 4.712-8.372 8.737-13.706 11.788-2.66 1.521-3.937 4.688-3.158 7.652.246.937.463 1.888.648 2.854 4.515 23.57-10.933 46.337-34.503 50.851-17.745 3.399-35.025-4.522-44.411-18.7-1.968-2.972-5.91-4.048-9.017-2.299-2.476 1.393-5.212 2.422-8.151 2.998-14.761 2.893-29.333-6.947-32.162-21.721-.016-.082-.031-.165-.046-.247-.57-3.129-3.111-5.514-6.285-5.718l-83.273-5.351c-3.033-.195-5.823-1.331-8.074-3.129-4.04 2.283-6.933 6.307-7.426 11.033-.751 7.197 3.877 13.72 10.731 15.496l80.78 20.922c3.079.797 5.126 3.618 5.097 6.798 0 .084-.001.168-.001.252 0 15.042 12.46 27.447 27.502 27.383 2.995-.013 5.876-.508 8.569-1.411 3.38-1.133 7.05.665 8.423 3.955 6.551 15.691 22.033 26.721 40.1 26.721 23.999 0 43.453-19.454 43.453-43.453 0-.983-.033-1.958-.099-2.925-.207-3.058 1.642-5.928 4.541-6.921 18.815-6.451 32.342-24.286 32.342-45.288-.001-12.087-4.486-23.118-11.874-31.54z" fill="#61a2f9"/><path d="m193.57 147.766c-6.775-5.294-15.125-8.171-23.723-8.171h-37.829c-8.598 0-16.948 2.876-23.723 8.171l-46.379 36.248 6.294 6.875h164.5l7.238-6.875z" fill="#ff636e"/><path d="m146.166 147.766c4.826-5.294 10.774-8.171 16.899-8.171h-31.046c-8.598 0-16.948 2.876-23.723 8.171l-46.379 36.248 6.294 6.875h49.4l-4.483-6.875z" fill="#ff4654"/><path d="m239.949 450.64v-218.667l15.877-15.337v-16.745c0-8.769-7.108-15.877-15.877-15.877h-178.032c-8.769 0-15.877 7.108-15.877 15.877v16.745l15.877 14.004v225.333l-15.877 16.52v16.745c0 8.769 7.108 15.877 15.877 15.877h178.032c8.769 0 15.877-7.108 15.877-15.877v-16.745z" fill="#f9f6f9"/><path d="m99.825 489.238v-16.745l15.877-16.521v-225.332l-15.877-14.004v-16.745c0-8.769 7.108-15.877 15.877-15.877h-53.785c-8.769 0-15.877 7.108-15.877 15.877v16.745l15.877 14.004v225.333l-15.877 16.52v16.745c0 8.769 7.108 15.877 15.877 15.877h53.785c-8.769 0-15.877-7.108-15.877-15.877z" fill="#cbe2ff"/><path d="m46.04 216.636h209.786v255.857h-209.786z" fill="#ffd064"/><path d="m46.04 216.636h53.785v255.857h-53.785z" fill="#ffc250"/></g><g><path d="m385.862 212.175c29.285 0 52.571-24.746 50.867-53.893 22.078-7.823 36.87-28.726 36.87-52.194 0-23.47-14.792-44.372-36.87-52.195 1.723-29.063-21.524-53.893-50.867-53.893-20.442 0-38.76 12.089-46.815 30.846-11.725-3.663-25.249-1.04-34.963 8.634-6.636 6.607-10.297 15.339-10.316 24.594l-79.835 20.676c-9.066 2.347-15.79 9.995-16.731 19.03-1.139 10.896 5.721 20.794 16.309 23.535l80.257 20.786c.02 9.255 3.682 17.987 10.316 24.594 9.645 9.605 23.143 12.327 34.962 8.633 8.055 18.757 26.373 30.847 46.816 30.847zm-50.907-45.288c-6.83 2.292-14.707.738-20.287-4.82-3.806-3.789-5.9-8.775-5.9-14.04l.001-.183c.062-6.669-4.347-12.479-10.717-14.128l-80.78-20.922c-3.346-.866-5.512-4.001-5.15-7.457.296-2.842 2.535-5.279 5.573-6.065l80.355-20.813c6.372-1.649 10.78-7.459 10.718-14.146v-.165c0-5.265 2.095-10.251 5.9-14.04 5.626-5.603 13.487-7.1 20.287-4.821 7.043 2.361 14.828-1.231 17.728-8.176 5.607-13.432 18.631-22.111 33.179-22.111 20.837 0 37.284 17.729 35.871 38.37-.438 6.464 3.506 12.437 9.59 14.523h.001c16.314 5.594 27.275 20.942 27.275 38.194 0 17.251-10.961 32.6-27.274 38.193-6.085 2.085-10.03 8.057-9.592 14.529 1.424 20.626-15.039 38.364-35.871 38.364-14.548 0-27.572-8.679-33.18-22.111-2.891-6.924-10.661-10.54-17.727-8.175z"/><path d="m263.189 488.625v-127.177c0-4.143-3.357-7.5-7.5-7.5s-7.5 3.357-7.5 7.5v102.932h-194.786v-240.858h74.59c4.143 0 7.5-3.357 7.5-7.5s-3.357-7.5-7.5-7.5h-74.59v-9.244c0-4.619 3.758-8.377 8.377-8.377h178.032c4.619 0 8.377 3.758 8.377 8.377v9.244h-85.196c-4.143 0-7.5 3.357-7.5 7.5s3.357 7.5 7.5 7.5h85.196v102.926c0 4.143 3.357 7.5 7.5 7.5s7.5-3.357 7.5-7.5v-127.17c0-11.94-9-21.811-20.571-23.203l-44.567-34.833c-4.595-3.591-9.846-6.258-15.405-7.889v-52.526c0-8.562-6.966-15.527-15.527-15.527h-32.646c-8.562 0-15.527 6.966-15.527 15.527v52.527c-5.56 1.631-10.81 4.298-15.405 7.889l-44.567 34.833c-11.571 1.391-20.571 11.263-20.571 23.203v16.744 255.857 16.745c0 12.89 10.487 23.377 23.377 23.377h178.032c12.89 0 23.377-10.487 23.377-23.377zm-129.243-407.798c0-.291.236-.527.527-.527h32.646c.291 0 .527.236.527.527v17.761h-2.758c-4.143 0-7.5 3.357-7.5 7.5s3.357 7.5 7.5 7.5h2.758v17.895h-33.7zm-21.169 72.235c5.616-4.387 12.592-6.579 19.104-6.579h37.829c6.566 0 13.514 2.211 19.104 6.579l29.222 22.84h-134.481zm-59.374 335.563v-9.245h194.786v9.245c0 4.619-3.758 8.377-8.377 8.377h-178.032c-4.619 0-8.377-3.758-8.377-8.377z"/></g></symbol><symbol id="color-picker" viewBox="0 0 64 64"><title>color-picker</title><path d="m11.541 50 3.5 5.826a4.077 4.077 0 0 1 -3.5 6.174 4.077 4.077 0 0 1 -3.5-6.174z" fill="#83c5fd"/><rect fill="#f6725f" height="22" rx="3.5" transform="matrix(.707 -.707 .707 .707 -2.107 33.42)" width="7" x="35.788" y="8.253"/><path d="m11.8 41.793-1.768 1.768a3.5 3.5 0 0 0 0 4.949 3.5 3.5 0 0 0 4.95 0l1.768-1.767a25.7 25.7 0 0 0 11.629-6.68l13.384-13.385-9.9-9.9-13.385 13.386a25.7 25.7 0 0 0 -6.678 11.629z" fill="#ebebf5"/><path d="m54.491 4.05a7 7 0 0 0 -9.9 0l-7.779 7.779 9.9 9.9 7.778-7.778a7 7 0 0 0 .001-9.901z" fill="#e6613c"/><path d="m15.657 33.536a25.665 25.665 0 0 0 -3.857 8.257l-1.768 1.768a3.5 3.5 0 0 0 4.95 4.949l1.768-1.767a25.7 25.7 0 0 0 11.629-6.68l6.527-6.527z" fill="#5abefc"/><path d="m55.732 2.809a8.76 8.76 0 0 0 -12.375 0l-6.647 6.647a5.25 5.25 0 0 0 -7.21 7.212l-12.256 12.254a27.485 27.485 0 0 0 -7.008 11.958l-1.436 1.439a5.256 5.256 0 0 0 0 7.425 5.311 5.311 0 0 0 .566.49l-2.817 4.692a5.826 5.826 0 1 0 9.992 0l-2.352-3.921a5.233 5.233 0 0 0 2.033-1.261l1.439-1.439a27.487 27.487 0 0 0 11.958-7.005l12.254-12.258a5.25 5.25 0 0 0 7.212-7.211l6.647-6.648a8.76 8.76 0 0 0 0-12.374zm-44.187 57.441a2.326 2.326 0 0 1 -1.995-3.524l1.995-3.326 1.995 3.326a2.327 2.327 0 0 1 -1.995 3.524zm15.6-21.428a23.973 23.973 0 0 1 -10.837 6.224 1.753 1.753 0 0 0 -.793.455l-1.767 1.768a1.75 1.75 0 0 1 -2.475-2.475l1.768-1.768a1.75 1.75 0 0 0 .455-.792 23.95 23.95 0 0 1 3.08-6.953h14.108zm7.04-7.04h-14.841c.124-.13.248-.258.375-.385l12.148-12.148 7.425 7.425zm11.647-5.992a1.753 1.753 0 0 1 -2.475 0l-10.606-10.607a1.75 1.75 0 0 1 2.475-2.475l10.606 10.607a1.751 1.751 0 0 1 0 2.475zm7.425-13.082-6.541 6.541-7.424-7.425 6.54-6.54a5.25 5.25 0 0 1 7.425 7.424z"/></symbol><symbol id="color-picker-1" viewBox="0 0 24 24"><title>color-picker-1</title><path d="m14.07 5.71 4.24 4.24-6.56 6.57c-1 1-2.17 1.81-3.45 2.39-1.29.58-2.46 1.4-3.45 2.39l-.26.26c-.59.59-1.54.59-2.12 0-.59-.59-.59-1.54 0-2.12l.26-.26c1-1 1.81-2.17 2.39-3.45.58-1.29 1.4-2.46 2.39-3.45z" fill="#edebea"/><path d="m19.02 9.24 2-2c1.15-1.15 1.32-3.04.23-4.25-1.16-1.29-3.14-1.33-4.35-.12l-2.12 2.12-.35-.35c-.59-.59-1.54-.59-2.12 0-.59.59-.59 1.54 0 2.12l4.95 4.95c.59.59 1.54.59 2.12 0 .59-.59.59-1.54 0-2.12l-.35-.35z" fill="#2675e2"/><path d="m21.81 2.49c-.7-.77-1.65-1.22-2.69-1.24-1.02-.02-2.03.37-2.75 1.1l-1.6 1.6c-.86-.69-2.2-.62-3 .17-.81.82-.86 2.1-.16 2.98l-4.64 4.64c-1.08 1.09-1.93 2.33-2.54 3.68-.54 1.19-1.29 2.27-2.24 3.23l-.26.26c-.43.43-.66.99-.66 1.59s.23 1.16.66 1.59c.42.43.98.66 1.58.67.6 0 1.17-.23 1.59-.66l.26-.26c.94-.94 2.03-1.69 3.23-2.24 1.38-.63 2.62-1.49 3.68-2.55l4.64-4.63c.4.32.88.5 1.39.5.6 0 1.17-.23 1.59-.66s.66-.99.66-1.59c0-.52-.17-1.01-.49-1.4l1.48-1.48c1.48-1.48 1.59-3.8.26-5.28zm-10.59 13.49c-.94.94-2.03 1.69-3.24 2.25-1.37.62-2.6 1.48-3.67 2.54l-.26.26c-.14.14-.33.22-.53.22-.2 0-.38-.08-.52-.22-.18-.18-.22-.39-.22-.53s.04-.35.22-.53l.26-.26c1.07-1.08 1.93-2.32 2.54-3.67.53-1.19 1.29-2.28 2.24-3.24l4.62-4.62 3.19 3.19-4.62 4.61zm9.27-9.27-2 2c-.29.29-.29.77 0 1.06l.35.35c.14.14.22.33.22.53s-.08.39-.22.53c-.28.28-.78.28-1.06 0l-4.95-4.95c-.29-.29-.29-.77 0-1.06.15-.15.34-.22.53-.22s.38.07.53.22l.35.35c.29.29.77.29 1.06 0l2.12-2.12c.44-.44 1.02-.67 1.65-.66.62.02 1.2.28 1.62.75.79.87.69 2.31-.2 3.21z" fill="#050819"/></symbol><symbol id="paint-bucket" viewBox="0 0 48 48"><title>paint-bucket</title><path d="m23 7v6.25c-2.22-1.7-3.85-2.57-4.28-2.14l-9.72 9.709v-13.819a5.558 5.558 0 0 1 2.05-4.24 7.576 7.576 0 0 1 4.95-1.76c3.871 0 7 2.69 7 6z" fill="#fcfcfc"/><circle cx="23.001" cy="24.999" fill="#0091ff" r="2"/><path d="m23 23a2 2 0 1 0 2 2 2.006 2.006 0 0 0 -2-2zm12.2 6.01a1.986 1.986 0 0 1 1.34.72l-.37.27-16.749 16.758c-1.16 1.16-6.17-1.969-11.19-6.989s-8.149-10.03-6.989-11.19l7.758-7.76 9.72-9.709c-.34.33.11 1.39 1.13 2.89a42.289 42.289 0 0 0 3.15 3.969c1.01 1.15 2.16 2.37 3.41 3.62l.5.5a44.709 44.709 0 0 0 8.339 6.82z" fill="#e4e4e4"/><path d="m43 38v6a3 3 0 0 1 -6 0v-13a2.011 2.011 0 0 0 -1.8-1.99l.05-.1a44.709 44.709 0 0 1 -8.339-6.82l.089-.09h6a14 14 0 0 1 14 14v2a2.006 2.006 0 0 1 -2 2 2.015 2.015 0 0 1 -2-2z" fill="#0091ff"/><path d="m29.2 18.8a68.851 68.851 0 0 0 -6.2-5.55c-2.22-1.7-3.85-2.57-4.28-2.14-.34.33.11 1.39 1.13 2.89a42.289 42.289 0 0 0 3.15 3.969c1.01 1.15 2.16 2.37 3.41 3.62l.5.5.09-.089h5.24c-.92-1.031-1.94-2.111-3.04-3.2z" fill="#9c9c9c"/><path d="m23 17.969c1.01 1.15 2.16 2.37 3.41 3.62l.5.5.09-.089h3.374c-.384-.4-.768-.8-1.174-1.2a68.851 68.851 0 0 0 -6.2-5.55 11.671 11.671 0 0 0 -3.768-2.228c.174.3.379.626.618.978a42.289 42.289 0 0 0 3.15 3.969z" fill="#595959"/><path d="m35.2 29.009.05-.1a16.729 16.729 0 0 1 -1.75-1.123c-5.309 6.164-18.353 13.144-32.061.6l-.193.193c-1.16 1.16 1.969 6.17 6.989 11.19s10.03 8.149 11.19 6.989l16.745-16.758.37-.27a1.986 1.986 0 0 0 -1.34-.721z" fill="#cfcfcf"/><path d="m41.59 37.624a1.524 1.524 0 0 1 -.59-1.184v5.04a2.788 2.788 0 0 1 -3 2.52 3.47 3.47 0 0 1 -1-.155v.155a3 3 0 0 0 6 0v-5.88a2.153 2.153 0 0 1 -1.41-.496z" fill="#00a6ff"/><path d="m33 22h-6l-.09.09c.317.313.631.612.944.911h3.146c7.73 0 14 5.267 14 11.76v1.68a1.864 1.864 0 0 1 -1.988 1.679 2 2 0 0 0 1.988 1.88 2.006 2.006 0 0 0 2-2v-2a14 14 0 0 0 -14-14z" fill="#31c4ff"/><g fill="#f6fafd"><ellipse cx="6.582" cy="28.695" rx="1.642" ry="2.286" transform="matrix(.707 -.707 .707 .707 -18.368 13.067)"/><ellipse cx="42.58" cy="29.708" rx=".825" ry="1.148" transform="matrix(.707 -.707 .707 .707 -8.532 38.827)"/><ellipse cx="8.58" cy="25.708" rx=".825" ry="1.148" transform="matrix(.707 -.707 .707 .707 -15.669 13.605)"/><ellipse cx="43.326" cy="32.208" rx=".413" ry=".574" transform="matrix(.707 -.707 .707 .707 -10.082 40.088)"/></g><path d="m8 13h2v2.001h-2z"/><path d="m36 37h2v2h-2z"/><path d="m33 21h-.325c-.868-.958-1.79-1.934-2.766-2.91a66.548 66.548 0 0 0 -5.909-5.35v-5.74c0-3.86-3.589-7-8-7s-8 3.14-8 7v4h2v-4c0-2.757 2.691-5 6-5s6 2.243 6 5v4.311c-2.466-1.56-3.534-1.364-3.991-.909l-8.009 8.009v-1.411h-2v3.411l-7.466 7.466c-2.725 2.725 5.987 11.6 6.99 12.6.869.868 7.635 7.515 11.2 7.515a1.887 1.887 0 0 0 1.394-.525l12.764-12.76-1.414-1.414-12.709 12.707c-.884.165-4.845-1.965-9.821-6.939s-7.102-8.925-6.938-9.82l16.137-16.141a15 15 0 0 0 .889 1.46l.828-.56-.827.563q.334.491.743 1.037l1.6-1.2c-.253-.339-.484-.663-.691-.966-.273-.4-.477-.732-.628-1a21.127 21.127 0 0 1 1.949 1.325v8.425a3 3 0 1 0 2 0v-6.83c1.3 1.094 2.8 2.457 4.5 4.15q.748.75 1.456 1.5h-2.727c-.039-.038-.077-.074-.116-.113-.529-.531-1.042-1.056-1.533-1.575l-1.451 1.376q.755.8 1.57 1.613c3.578 3.578 7.093 6.465 9.2 7.561l-1.431 1.431 1.414 1.414 1.118-1.122v3.411h2v-4a2.994 2.994 0 0 0 -2.152-2.863l.013-.026a36.318 36.318 0 0 1 -6.548-5.111h3.687a13.015 13.015 0 0 1 13 13v2a1 1 0 0 1 -2 0v-3a1 1 0 0 0 -2 0v9a2 2 0 0 1 -4 0v-3h-2v3a4 4 0 0 0 8 0v-3.171a3 3 0 0 0 4-2.829v-2a15.017 15.017 0 0 0 -15-15zm-10 5a1 1 0 1 1 1-1 1 1 0 0 1 -1 1z"/></symbol><symbol id="lasso-tool" viewBox="0 0 64 64"><title>lasso-tool</title><g><path d="m28.73 41.39c-.68-2.03-2.58-3.39-4.73-3.39-1.27 0-2.48.48-3.42 1.36-1.02.95-1.58 2.24-1.58 3.64 0 .37.05.75.13 1.12.52 2.28 2.52 3.88 4.87 3.88 1.43 0 2.8-.62 3.75-1.7.81-.92 1.25-2.09 1.25-3.3 0-.54-.09-1.08-.27-1.61zm-2.48 3.59c-.57.65-1.39 1.02-2.25 1.02-1.41 0-2.61-.95-2.92-2.33-.05-.23-.08-.45-.08-.67 0-.84.33-1.61.94-2.18.57-.53 1.3-.82 2.06-.82 1.29 0 2.43.81 2.83 2.03.12.33.17.65.17.97 0 .72-.27 1.43-.75 1.98zm2.48-3.59c-.68-2.03-2.58-3.39-4.73-3.39-1.27 0-2.48.48-3.42 1.36-1.02.95-1.58 2.24-1.58 3.64 0 .37.05.75.13 1.12.52 2.28 2.52 3.88 4.87 3.88 1.43 0 2.8-.62 3.75-1.7.81-.92 1.25-2.09 1.25-3.3 0-.54-.09-1.08-.27-1.61zm-2.48 3.59c-.57.65-1.39 1.02-2.25 1.02-1.41 0-2.61-.95-2.92-2.33-.05-.23-.08-.45-.08-.67 0-.84.33-1.61.94-2.18.57-.53 1.3-.82 2.06-.82 1.29 0 2.43.81 2.83 2.03.12.33.17.65.17.97 0 .72-.27 1.43-.75 1.98zm2.48-3.59c-.68-2.03-2.58-3.39-4.73-3.39-1.27 0-2.48.48-3.42 1.36-1.02.95-1.58 2.24-1.58 3.64 0 .37.05.75.13 1.12.52 2.28 2.52 3.88 4.87 3.88 1.43 0 2.8-.62 3.75-1.7.81-.92 1.25-2.09 1.25-3.3 0-.54-.09-1.08-.27-1.61zm-2.48 3.59c-.57.65-1.39 1.02-2.25 1.02-1.41 0-2.61-.95-2.92-2.33-.05-.23-.08-.45-.08-.67 0-.84.33-1.61.94-2.18.57-.53 1.3-.82 2.06-.82 1.29 0 2.43.81 2.83 2.03.12.33.17.65.17.97 0 .72-.27 1.43-.75 1.98zm2.48-3.59c-.68-2.03-2.58-3.39-4.73-3.39-1.27 0-2.48.48-3.42 1.36-1.02.95-1.58 2.24-1.58 3.64 0 .37.05.75.13 1.12.52 2.28 2.52 3.88 4.87 3.88 1.43 0 2.8-.62 3.75-1.7.81-.92 1.25-2.09 1.25-3.3 0-.54-.09-1.08-.27-1.61zm-2.48 3.59c-.57.65-1.39 1.02-2.25 1.02-1.41 0-2.61-.95-2.92-2.33-.05-.23-.08-.45-.08-.67 0-.84.33-1.61.94-2.18.57-.53 1.3-.82 2.06-.82 1.29 0 2.43.81 2.83 2.03.12.33.17.65.17.97 0 .72-.27 1.43-.75 1.98zm2.48-3.59c-.68-2.03-2.58-3.39-4.73-3.39-1.27 0-2.48.48-3.42 1.36-1.02.95-1.58 2.24-1.58 3.64 0 .37.05.75.13 1.12.52 2.28 2.52 3.88 4.87 3.88 1.43 0 2.8-.62 3.75-1.7.81-.92 1.25-2.09 1.25-3.3 0-.54-.09-1.08-.27-1.61zm-2.48 3.59c-.57.65-1.39 1.02-2.25 1.02-1.41 0-2.61-.95-2.92-2.33-.05-.23-.08-.45-.08-.67 0-.84.33-1.61.94-2.18.57-.53 1.3-.82 2.06-.82 1.29 0 2.43.81 2.83 2.03.12.33.17.65.17.97 0 .72-.27 1.43-.75 1.98zm2.48-3.59c-.68-2.03-2.58-3.39-4.73-3.39-1.27 0-2.48.48-3.42 1.36-1.02.95-1.58 2.24-1.58 3.64 0 .37.05.75.13 1.12.52 2.28 2.52 3.88 4.87 3.88 1.43 0 2.8-.62 3.75-1.7.81-.92 1.25-2.09 1.25-3.3 0-.54-.09-1.08-.27-1.61zm-2.48 3.59c-.57.65-1.39 1.02-2.25 1.02-1.41 0-2.61-.95-2.92-2.33-.05-.23-.08-.45-.08-.67 0-.84.33-1.61.94-2.18.57-.53 1.3-.82 2.06-.82 1.29 0 2.43.81 2.83 2.03.12.33.17.65.17.97 0 .72-.27 1.43-.75 1.98z"/></g><g><path d="m24 48c-2.352 0-4.353-1.596-4.866-3.881-.088-.365-.134-.746-.134-1.119 0-1.396.56-2.688 1.576-3.64.944-.878 2.159-1.36 3.424-1.36 2.147 0 4.047 1.363 4.729 3.392.179.528.271 1.07.271 1.608 0 1.206-.443 2.377-1.247 3.298-.953 1.083-2.319 1.702-3.753 1.702zm0-8c-.758 0-1.489.292-2.059.822-.606.567-.941 1.342-.941 2.178 0 .219.027.437.082.666.31 1.38 1.509 2.334 2.918 2.334.859 0 1.679-.372 2.249-1.021.483-.553.751-1.257.751-1.979 0-.322-.054-.639-.167-.968-.408-1.217-1.546-2.032-2.833-2.032z"/></g><g><path d="m53.37 39.38c4.28-3.86 6.63-8.76 6.63-13.88 0-11.318-11.463-20.634-25.952-21.437-.57-.032-1.048.434-1.048 1.005 0 .533.421.963.954.992 13.432.746 24.046 9.182 24.046 19.44 0 4.59-2.16 9.01-6.09 12.51l-1.44-1.34c3.12-2.72 5.01-6.06 5.44-9.6.06-.57-.36-1.07-.92-1.07h-.15c-.48 0-.86.37-.92.85-.39 3.09-2.1 6.03-4.92 8.45l-4.32-4.03c-.29-.27-.72-.34-1.08-.19-.36.16-.6.52-.6.92v6.89c-3.12 1.3-6.63 2.01-10.24 2.09-.92-4.03-4.54-6.98-8.76-6.98-2.57 0-5.01 1.11-6.7 3-4.65-2.95-7.3-7.1-7.3-11.5 0-8.55 9.87-15.5 22-15.5 11.04 0 20.2 5.75 21.77 13.23.09.44.46.77.91.77h.14c.59 0 1.03-.55.91-1.14-1.75-8.4-11.73-14.86-23.73-14.86-13.23 0-24 7.85-24 17.5 0 5.08 2.95 9.81 8.14 13.13-.19.36-.46.84-.77 1.83-2.36-1.47-4.32-3.24-5.84-5.2-.34-.44-.95-.54-1.4-.22-.27.2-.41.5-.41.81 0 .21.06.42.2.6 1.82 2.35 4.21 4.44 7.1 6.13-.02.14-.02.28-.02.42 0 4.01 2.64 7.42 6.28 8.57v2.01c-.1.2-.52.75-1.33 1.48-1.07.95-1.26 2.52-.44 3.66l.07.1c.41.66 1.11 1.09 1.89 1.15.13.02.27.03.4.03.68 0 1.35-.25 1.87-.71 1.49-1.3 3.26-3.32 3.26-5.56v-2.25c2.18-.76 4-2.35 5.07-4.48 3.8-.01 7.47-.59 10.93-1.74v8.74c0 .43.28.81.68.95.11.03.21.05.32.05.31 0 .61-.14.8-.4l5.7-7.6h8.5c.41 0 .78-.25.93-.63.15-.39.05-.82-.25-1.1zm-28.37 14.35c0 1.16-.92 2.6-2.58 4.06-.18.16-.41.23-.65.2-.13-.01-.39-.07-.56-.32l-.07-.11c-.23-.31-.17-.74.14-1.01.87-.78 1.93-1.89 2-2.82v-1.73h1.72zm5.49-8.11c-1.07 2.66-3.62 4.38-6.49 4.38-3.86 0-7-3.14-7-7 0-.29.02-.57.05-.85.15-1.17.59-2.3 1.29-3.25 1.31-1.82 3.42-2.9 5.66-2.9 3.52 0 6.5 2.63 6.95 6.12.03.29.05.58.05.88 0 .89-.17 1.77-.51 2.62zm12.51-2.46c-3.22 1.14-6.65 1.75-10.22 1.83.01-.06.15-.49.22-2.01 3.49-.1 6.9-.76 10-1.92zm7 1.84c-.31 0-.61.15-.8.4l-4.2 5.6v-16.7l2.42 2.26 4.42 4.12 4.62 4.32zm-44-19.5c0-10.249 10.595-18.674 24.008-19.439.532-.03.952-.459.952-.992 0-.571-.479-1.037-1.049-1.004-14.468.822-25.911 10.127-25.911 21.435 0 2.53.59 5.01 1.69 7.34.28.58 1 .78 1.52.4.26-.19.4-.49.4-.81 0-.15-.03-.3-.1-.45-.99-2.06-1.51-4.25-1.51-6.48z"/></g></symbol><symbol id="undo" viewBox="0 0 24 24"><title>undo</title><path clip-rule="evenodd" d="m4 8.25c.41421 0 .75.33579.75.75v4.2937c1.89106-1.7393 3.99514-3.54122 6.8908-3.9486 2.0934-.2945 4.2258.09925 6.0759 1.1219 1.8501 1.0227 3.3177 2.619 4.1817 4.5482.1693.3781.0001.8218-.3779.9911-.3781.1693-.8218 0-.9911-.378-.731-1.6324-1.9729-2.9831-3.5384-3.8485-1.5655-.8653-3.3698-1.1985-5.1412-.9493-2.37117.3336-4.09167 1.7569-5.91614 3.4195h4.06634c.4142 0 .75.3358.75.75s-.3358.75-.75.75h-6c-.41421 0-.75-.3358-.75-.75v-6c0-.41421.33579-.75.75-.75z" fill="rgb(0,0,0)" fill-rule="evenodd"/></symbol><symbol id="pencil-2" viewBox="0 0 468 468"><title>pencil-2</title><g><g><g><path d="m164.985 391.374-76.783-43.76 183.527-313.78c12.226-20.903 39.044-28.074 60.104-16.071 21.344 12.164 28.648 39.368 16.257 60.552z" fill="#fff"/></g><g><path d="m291.729 53.836c11.791-20.159 37.152-27.539 57.833-17.273-3.761-7.63-9.767-14.262-17.729-18.8-21.06-12.003-47.878-4.832-60.104 16.071l-183.527 313.78 23.774 13.549z" fill="#e0e0e0"/></g></g><g><path d="m98.064 296.273h26.295v24.001h-26.295z" fill="#4d4d4d" transform="matrix(.505 -.863 .863 .505 -211.029 248.597)"/></g><g><g><path d="m164.985 391.374-76.783-43.76-12.204 108.385z" fill="#fcd259"/></g><g><path d="m111.191 360.716-22.989-13.102-12.204 108.385 26.643-19.349z" fill="#f3c229"/></g></g></g><g><g><path d="m377.375 443.249h26.625v24.003h-26.625z" fill="#f3c229"/></g></g><path d="m175.327 397.424.017.01 183.105-313.06c15.559-26.601 6.013-61.829-20.674-77.04-26.654-15.19-60.928-6.022-76.404 20.439l-141.251 241.502 20.716 12.12 80.766-138.089 55.93 31.875-116.914 199.891-66.475-37.885c-7.368-4.199-16.917.655-17.866 9.084l-12.204 108.385c-.809 7.191 5.195 12.795 11.98 13.344l164.026-.749c3.547-.016 6.905-1.601 9.173-4.329l6.925-8.331 6.031 7.926c2.27 2.983 5.802 4.733 9.549 4.733h83.652v-24.003h-77.704l-11.564-15.197c-4.603-6.05-13.917-6.252-18.777-.404l-12.991 15.627-121.193.553 58.856-42.742c1.364-.989 2.465-2.248 3.291-3.66zm58.394-274.838 23.44-40.075 55.93 31.875-23.439 40.075zm-142.753 307.71 7.12-63.234 44.797 25.53z" fill="#4d4d4d"/></symbol><symbol id="palette" viewBox="0 0 468 468"><title>palette</title><g><g><path d="m232.813 68.109c17.413 29.974 66.5 91.399 176.217 91.001 12.326-.045 23.463 7.511 27.986 18.972 5.436 13.776 11.119 34.302 11.119 59.917 0 102.727-97.631 186.003-218.066 186.003s-218.065-83.277-218.065-186.004c0-95.194 83.838-173.681 191.969-184.681 11.674-1.187 22.947 4.648 28.84 14.792z" fill="#fff"/></g><g><path d="m35.011 250.997c0-95.194 83.838-173.681 191.969-184.681 1.557-.158 3.106-.183 4.638-.098-6.141-8.97-16.716-14.012-27.645-12.9-108.131 11-191.969 89.487-191.969 184.681 0 69.051 44.113 129.313 109.612 161.403-52.609-33.959-86.605-87.793-86.605-148.405z" fill="#e0e0e0"/></g><g><g><ellipse cx="167.05" cy="328.514" fill="#ff5477" rx="43.979" ry="33.995"/></g><g><path d="m137.076 348.512c0-18.775 19.69-33.995 43.979-33.995 11.329 0 21.655 3.313 29.452 8.752-3.264-16.284-21.476-28.75-43.456-28.75-24.289 0-43.979 15.22-43.979 33.995 0 10.018 5.608 19.022 14.527 25.243-.343-1.709-.523-3.461-.523-5.245z" fill="#e5305c"/></g><g><path d="m167.05 374.508c-30.869 0-55.983-20.633-55.983-45.994s25.114-45.994 55.983-45.994 55.983 20.633 55.983 45.994-25.114 45.994-55.983 45.994zm0-67.991c-17.332 0-31.975 10.074-31.975 21.997s14.643 21.997 31.975 21.997 31.975-10.074 31.975-21.997c.001-11.923-14.642-21.997-31.975-21.997z" fill="#4d4d4d"/></g></g><path d="m329.099 261.523c-30.869 0-55.983 20.633-55.983 45.994s25.114 45.994 55.983 45.994 55.983-20.633 55.983-45.994-25.114-45.994-55.983-45.994z" fill="#4d4d4d"/><path d="m114.034 146.539c-30.869 0-55.983 20.633-55.983 45.994s25.114 45.994 55.983 45.994 55.983-20.633 55.983-45.994-25.114-45.994-55.983-45.994z" fill="#4d4d4d"/><g><path d="m273.877 130.922c-5.87-4.289-11.547-8.96-16.875-13.881l16.294-17.625c4.656 4.301 9.619 8.384 14.752 12.135z" fill="#e5305c"/></g></g><g><path d="m291.159 164.96 39.146 36.911 39.988-38.905-36.381-37.676z" fill="#fff"/><g><g><path d="m298.374 171.764c-20.775-7.266-49.905-.02-69.617 26.857-18.936 25.819-6.263 68.148 8.15 71.661 2.593.632 12.574-9.031 28.604-15.792 17.86-7.533 41.082-13.59 48.006-19.15 15.992-12.841 15.752-27.668 9.919-39.947z" fill="#fff"/></g><g><path d="m248.763 211.62c17.17-23.411 41.485-31.923 61.201-28.928l-11.589-10.927c-20.775-7.266-49.905-.02-69.617 26.857-18.936 25.819-6.263 68.148 8.15 71.661 1.031.251 3.233-1.127 6.514-3.3-5.949-15.546-6.78-38.837 5.341-55.363z" fill="#e0e0e0"/></g></g></g><path d="m409.131 147.111c-1.765 0-3.531-.011-5.296-.034l53.142-51.702c14.529-14.136 14.72-38.083.421-52.45-14.098-14.164-36.617-14.609-51.267-1.017 0 0-123.772 114.887-124.061 115.222-25.215.056-48.364 14.449-62.993 34.398-15.391 20.985-13.525 48.531-7.249 65.742 6.798 18.64 20.758 31.324 39.26 19.027 21.48-14.28 50.013-15.595 69.948-31.601 12.007-9.642 18.142-21.689 18.054-34.627l41.413-40.291c13.286 1.301 38.876-3.69 45.346 12.708 4.691 11.883 10.282 31.162 10.282 55.513 0 95.946-92.439 174.004-206.062 174.004s-206.062-78.058-206.062-174.004c0-87.973 77.891-162.237 181.181-172.745 6.927-.71 13.701 2.78 17.244 8.879 5.937 10.221 13.069 20.062 21.198 29.248l17.982-15.898c-7.078-8-13.275-16.546-18.419-25.4-8.27-14.233-24.156-22.358-40.436-20.702-115.59 11.759-202.757 96.287-202.757 196.618 0 120.596 118.947 198.001 230.069 198.001 111.123 0 230.069-77.401 230.069-198.001 0-28.122-6.502-50.5-11.957-64.32-6.276-15.908-21.955-26.568-39.05-26.568zm-103.13 78.876c-18.845 15.129-47.377 16.484-68.064 30.233-1.767-2.596-4.008-7.131-5.449-13.788-2.991-13.831-.767-27.557 5.951-36.717 11.92-16.252 32.965-28.896 53.716-23.321l21.275 20.061c3.665 9.179 1.323 16.504-7.429 23.532zm24.174-40.733-21.448-20.223 24.725-22.942 19.904 20.613z" fill="#4d4d4d"/></symbol><symbol id="crayon" viewBox="0 0 511.973 511.973"><title>crayon</title><path d="m29.629 502.676c-5.691 3.084-12.95 2.231-17.759-2.578l159.099-159.099v84.853z" fill="#cb2e81"/><path d="m24.545 497.592c-5.039 3.736-10.27 4.911-12.675 2.506-4.809-4.809-5.662-12.068-2.575-17.756-.004-.004 76.821-141.343 76.821-141.343l84.849-.004-21.209 63.644z" fill="#fa3278"/><path d="m504.482 113.552-21.214-21.213-116.673 53.033 95.46 10.607z" fill="#fa3278"/><path d="m483.268 92.339-84.852-84.853-42.427 42.427 42.427 127.279z" fill="#ff5e79"/><path d="m181.575 436.459-21.213-21.214 53.033-116.673 10.607 95.46z" fill="#fa3278"/><path d="m160.362 415.245-84.853-84.852 42.427-42.427 127.279 42.427z" fill="#ff5e79"/><path d="m462.055 155.979-21.213-21.213-172.06 65.993-65.993 172.06 21.213 21.213 31.82-31.82v-21.213h21.213l131.987-131.987v-21.213h21.213z" fill="#ff7e73"/><path d="m440.842 134.766-84.853-84.853-31.82 31.819-.357 21.571-20.856-.357-131.987 131.987v21.213h-21.213l-31.82 31.82 84.853 84.853z" fill="#ff9e66"/><path d="m430.235 187.799-21.213-21.214-42.427-21.213 21.214 42.427 21.213 21.213z" fill="#3a4e66"/><path d="m340.989 74.766h30v120h-30z" fill="#496585" transform="matrix(.707 -.707 .707 .707 8.973 291.194)"/><path d="m277.035 340.999-21.213-21.213-42.427-21.213 21.213 42.426 21.214 21.213z" fill="#3a4e66"/><path d="m187.789 227.966h30v120h-30z" fill="#496585" transform="matrix(.707 -.707 .707 .707 -144.227 227.737)"/><path d="m509.772 108.262-106.066-106.065c-2.929-2.929-7.678-2.929-10.606 0l-206.234 206.233c-2.929 2.929-2.929 7.678 0 10.606 2.929 2.929 7.678 2.929 10.606 0l105.471-105.471 95.459 95.459-121.381 121.382-100.762-100.763c-1.406-1.407-3.314-2.197-5.303-2.197s-3.897.79-5.303 2.197l-95.459 95.459c-2.929 2.929-2.929 7.678 0 10.606l6.645 6.645-73.285 134.835c-.242.445-.539.991-.82 1.614-4.761 8.667-3.173 19.621 3.819 26.613 4.302 4.302 10.105 6.559 15.961 6.559 3.658 0 7.337-.881 10.683-2.694l136.417-74.149 6.645 6.645c1.464 1.464 3.384 2.197 5.303 2.197s3.839-.732 5.303-2.197l322.906-322.906c2.93-2.93 2.93-7.679.001-10.608zm-360.029 158.504 95.459 95.459-21.213 21.213-95.459-95.459zm-123.7 229.33c-2.9 1.572-6.554 1.042-8.883-1.288s-2.858-5.979-1.287-8.874c.829-1.532 55.351-101.843 72.025-132.52l70.656 70.656zm155.519-70.231-95.459-95.459 31.82-31.82 95.459 95.459zm74.246-74.246-95.459-95.459 10.607-10.607 95.459 95.459zm100.169-291.087 95.459 95.46-21.213 21.213-95.459-95.46zm-42.427 42.427 10.607-10.607 95.459 95.46-10.607 10.607zm148.492 42.427-95.459-95.46 31.82-31.82 95.459 95.459z"/></symbol><symbol id="pencil" viewBox="0 0 500 500"><title>pencil</title><path fill="#0945ad" d="m421.535 188.477 47.795-40.22c25.989-21.87 30.272-59.66 9.568-84.406-21.554-25.763-60.961-28.191-88.016-5.423l-45.864 38.595 76.517 91.454zM42.593 378.149 7.962 458.581l85.661-19.491z" data-original="#d2e2fe" class="" opacity="1"/><g fill="#fff"> <path d="M345.033 96.507 60.619 336.006 8.009 458.275l126.903-28.894 286.631-241.366z" fill="#ffffff" data-original="#ffffff" class=""/> <path d="M382.998 141.546 130.32 355.065l-60.422-27.076L345.009 96.48z" fill="#ffffff" data-original="#ffffff" class=""/> <path d="M382.998 141.546 130.32 355.065l16.262 64.238 274.953-231.101z" fill="#ffffff" data-original="#ffffff" class=""/> </g><path fill="#1b2a37" d="m427.926 183.15-76.78-91.801c-3.49-3.452-7.254-3.78-11.29-.986L64.744 321.872c-4.32 5.163-3.694 9.633 1.88 13.411l56.421 25.284 15.664 60.636c2.756 6.14 7.077 7.664 12.915 4.31l275.263-231.636c3.453-3.488 3.833-6.692 1.039-10.727zm-299.86 162.142-43.269-19.39 259.225-218.141 27.499 32.854zm22.709 60.03-12.067-48.08 243.103-204.38 28.734 34.112z" data-original="#1b2a37" class=""/><path fill="#101010" d="M385.729 51.761 55.424 329.717a7.998 7.998 0 0 0-2.196 2.955L.613 454.87c-2.277 5.784 2.015 12.28 9.125 10.957l126.915-28.878a7.999 7.999 0 0 0 3.377-1.681l334.453-281.446c29.31-24.664 34.106-67.626 10.552-95.652-13.362-15.9-53.699-41.885-99.306-6.409zM44.803 392.697l34.29 40.949-57.56 13.097zm86.405 29.09-34.59 7.871-44.73-53.417 15.29-35.511L344.03 107.756l66.253 79.187zm332.969-280.196-41.654 35.052-66.253-79.188 39.765-33.463c22.303-18.768 57.404-18.657 76.726 4.437 17.851 21.336 14 54.156-8.584 73.162z" data-original="#448af9" class="" opacity="1"/></symbol><symbol id="paint-brush" viewBox="0 0 512.004 512.004"><title>paint-brush</title><path style="fill:#7C5748;" d="M183.799,392.264l-63.23-63.23c0,0-57.809-14.542-94.281,50.299 c-36.532,64.781,11.919,125.152,11.919,125.152c15.674-29.143,24.613-26.163,59.596-34.328 C132.785,461.992,183.8,435.173,183.799,392.264z"/><path style="fill:#5F4C44;" d="M144.466,352.931l-23.899-23.899c0,0-57.809-14.542-94.281,50.299 c-36.532,64.781,11.919,125.152,11.919,125.152C14.665,417.652,116.098,367.114,144.466,352.931z"/><path style="fill:#DB1F16;" d="M47.682,351.501c-7.509,7.032-14.781,16.09-21.395,27.831 c-36.532,64.781,11.919,125.152,11.919,125.152c15.674-29.143,24.613-26.163,59.596-34.328c5.78-1.371,12.039-3.218,18.356-5.602 c-1.61-5.781-1.431-13.111,3.158-21.991c0,0-25.268-7.39-42.432-24.554c-4.113-4.113-6.437-8.582-8.045-13.408 C63.713,389.224,66.692,370.512,47.682,351.501z"/><path style="fill:#B22627;" d="M47.682,351.501c-7.509,7.032-14.781,16.09-21.395,27.831 c-36.532,64.781,11.919,125.152,11.919,125.152c-11.324-41.718,6.198-74.972,30.633-99.883 C63.713,389.224,66.692,370.512,47.682,351.501z"/><path style="fill:#C0C9D2;" d="M226.458,345.748l-65.206-65.206c-5.168-5.168-13.547-5.168-18.714,0l-25.873,25.873 c-5.168,5.168-5.168,13.547,0,18.714l65.206,65.206c5.168,5.168,13.547,5.168,18.714,0l25.873-25.873 C231.626,359.294,231.626,350.916,226.458,345.748z"/><path style="fill:#A6AEBA;" d="M142.973,332.458l25.607-25.607c5.241-5.241,13.739-5.241,18.981,0l-26.176-26.176 c-5.241-5.241-13.739-5.241-18.981,0l-25.607,25.607c-5.241,5.241-5.241,13.739,0,18.981l26.176,26.176 C137.732,346.198,137.732,337.699,142.973,332.458z"/><path style="fill:#F89E00;" d="M222.211,341.504c24.897-3.636,60.833-25.915,118.738-83.819 C441.325,157.309,519.866,37.741,494.56,12.437c-25.305-25.305-144.871,53.235-245.248,153.611 c-57.903,57.903-80.184,93.839-83.82,118.738"/><path style="fill:#D38302;" d="M272.24,188.976c-57.903,57.903-83.602,90.422-92.56,109.997l-14.187-14.187 c3.636-24.898,25.915-60.833,83.82-118.738C349.689,65.673,469.255-12.867,494.561,12.438 C481.915-0.207,372.616,88.6,272.24,188.976z"/><path d="M499.942,7.066c-10.949-10.951-31.39-9.187-62.492,5.393c-24.591,11.526-54.81,30.697-87.726,55.625 c-3.366,2.55-4.008,7.363-1.43,10.707l0,0c2.551,3.308,7.296,3.929,10.626,1.405C439.178,19.36,480.742,9.375,489.187,17.82 c6.59,6.59,2.498,32.805-30.719,85.005c-29.564,46.457-74.357,100.942-122.894,149.482c-48.822,48.823-85.135,75.367-110.811,80.991 l-51.064-51.064c5.622-25.675,32.166-61.987,80.99-110.812c24.211-24.21,50.576-48.101,76.613-69.441 c3.223-2.642,3.699-7.393,1.083-10.637l-0.001-0.001c-2.655-3.293-7.482-3.78-10.754-1.098 c-26.41,21.647-53.147,45.875-77.696,70.422c-47,47.001-73.77,82.594-82.94,110.508c-7.767-3.764-17.395-2.449-23.834,3.989 l-25.874,25.874c-5.14,5.14-7.016,12.317-5.654,18.956c-4.456,0.029-9.609,0.391-15.221,1.375c-4.409,0.773-7.208,5.166-6.036,9.486 v0.001c1.036,3.82,4.821,6.164,8.72,5.485c11.095-1.931,19.976-0.943,23.688-0.338l59.305,59.303 c-1.809,26.514-27.041,46.398-52.734,58.033c0.496-2.281,1.349-4.629,2.601-7.04c0.598-1.153,0.995-2.417,0.983-3.716 c-0.031-3.527-2.342-6.394-5.479-7.312c-0.234-0.068-23.583-7.025-39.19-22.632c-6.069-6.068-7.366-13.573-9.008-23.071 c-1.881-10.887-4.168-24.087-14.855-37.47c1.627-1.295,3.288-2.52,4.981-3.671c3.235-2.201,4.216-6.532,2.31-9.949l-0.003-0.005 c-2.178-3.903-7.234-5.095-10.93-2.581c-13.777,9.371-25.568,22.665-35.123,39.624c-15.996,28.404-18.88,60.55-8.337,92.964 c7.879,24.229,20.416,40.018,20.945,40.677c1.451,1.808,3.637,2.846,5.931,2.846c0.23,0,0.461-0.01,0.694-0.031 c2.54-0.232,4.794-1.722,6.004-3.967c11.493-21.341,16.904-22.466,39.679-27.205c4.374-0.91,9.333-1.942,14.958-3.258 c21.34-4.994,42.854-14.942,59.025-27.296c18.295-13.977,29.246-30.573,32.11-48.456c0.195,0.005,0.386,0.028,0.582,0.028 c5.566,0,10.798-2.168,14.735-6.104l25.874-25.874c6.439-6.44,7.754-16.07,3.988-23.837c27.917-9.171,63.507-35.941,110.506-82.941 c49.287-49.291,94.836-104.719,124.969-152.071C505.509,57.233,515.146,22.268,499.942,7.066z M96.046,462.731 c-5.441,1.274-10.302,2.284-14.591,3.177c-20.577,4.282-31.611,6.577-43.632,24.295c-11.037-18.568-30.413-61.98-4.932-107.223 c4.331-7.689,9.152-14.489,14.429-20.382c7.551,9.901,9.213,19.497,10.953,29.561c1.848,10.696,3.76,21.755,13.24,31.237 c12.358,12.357,28.311,19.938,37.734,23.666c-1.278,4.181-1.805,8.319-1.585,12.39C103.647,460.768,99.742,461.866,96.046,462.731z M221.08,359.084l-25.874,25.875c-1.064,1.064-2.476,1.649-3.98,1.649s-2.916-0.585-3.98-1.65l-65.207-65.205 c-2.195-2.195-2.195-5.767,0-7.961l25.874-25.874c1.097-1.098,2.538-1.647,3.98-1.647c1.442,0,2.883,0.549,3.98,1.647l65.207,65.207 C223.275,353.319,223.275,356.89,221.08,359.084z"/></symbol><symbol id="floppy-disk" viewBox="0 0 469.333 469.333"><title>floppy-disk</title><path d="M466.208,88.458L380.875,3.125c-2-2-4.708-3.125-7.542-3.125H42.667C19.146,0,0,19.135,0,42.667v384 c0,23.531,19.146,42.667,42.667,42.667h384c23.521,0,42.667-19.135,42.667-42.667V96 C469.333,93.167,468.208,90.458,466.208,88.458z M106.667,21.333h234.667v128c0,11.76-9.563,21.333-21.333,21.333H128 c-11.771,0-21.333-9.573-21.333-21.333V21.333z M384,448H85.333V256H384V448z M448,426.667c0,11.76-9.563,21.333-21.333,21.333 h-21.333V245.333c0-5.896-4.771-10.667-10.667-10.667h-320c-5.896,0-10.667,4.771-10.667,10.667V448H42.667 c-11.771,0-21.333-9.573-21.333-21.333v-384c0-11.76,9.563-21.333,21.333-21.333h42.667v128C85.333,172.865,104.479,192,128,192 h192c23.521,0,42.667-19.135,42.667-42.667v-128h6.25L448,100.417V426.667z"/><path d="M266.667,149.333h42.667c5.896,0,10.667-4.771,10.667-10.667V53.333c0-5.896-4.771-10.667-10.667-10.667h-42.667 c-5.896,0-10.667,4.771-10.667,10.667v85.333C256,144.562,260.771,149.333,266.667,149.333z M277.333,64h21.333v64h-21.333V64z"/></symbol><symbol id="refresh" viewBox="0 0 24 24"><title>refresh</title><g transform="matrix(-1.8369701987210297e-16,-1,1,-1.8369701987210297e-16,0.5006458759307861,23.500491380691532)"> <path fill="#000000" fill-rule="evenodd" d="M21 1.25a.75.75 0 0 1 .75.75v6a.75.75 0 0 1-.75.75h-6a.75.75 0 0 1 0-1.5h4.066c-1.824-1.663-3.545-3.086-5.916-3.42a8.251 8.251 0 1 0 6.632 10.911.75.75 0 0 1 1.415.499A9.75 9.75 0 1 1 13.36 2.345c2.896.407 5 2.21 6.891 3.949V2a.75.75 0 0 1 .75-.75z" clip-rule="evenodd" data-original="#000000"/> </g></symbol><symbol id="arrow-down" viewBox="0 0 451.847 451.847"><title>arrow-down</title><path d="M225.923,354.706c-8.098,0-16.195-3.092-22.369-9.263L9.27,151.157c-12.359-12.359-12.359-32.397,0-44.751 c12.354-12.354,32.388-12.354,44.748,0l171.905,171.915l171.906-171.909c12.359-12.354,32.391-12.354,44.744,0 c12.365,12.354,12.365,32.392,0,44.751L248.292,345.449C242.115,351.621,234.018,354.706,225.923,354.706z"/></symbol></svg>